<svg xmlns="http://www.w3.org/2000/svg" width="750" viewBox="0 0 750 225" height="225" version="1.0"><path fill="#FFF" d="M-75 -22.5H825V247.5H-75z"/><path fill="#FFF" d="M-75 -22.5H825V247.5H-75z"/><path fill="#FFF" d="M-75 -22.5H825V247.5H-75z"/><g fill="#AF38A6"><g><g><path d="M 60.28125 0 L 35.296875 0 L 35.296875 -97.03125 L 3.296875 -97.03125 L 3.296875 -117.828125 L 92.28125 -117.828125 L 92.28125 -97.03125 L 60.28125 -97.03125 Z M 60.28125 0" transform="translate(5.496 175.57)"/></g></g></g><g fill="#AF38A6"><g><g><path d="M 50.203125 -74.296875 C 44.992188 -74.296875 40.910156 -72.644531 37.953125 -69.34375 C 35.003906 -66.039062 33.3125 -61.351562 32.875 -55.28125 L 67.375 -55.28125 C 67.269531 -61.351562 65.6875 -66.039062 62.625 -69.34375 C 59.5625 -72.644531 55.421875 -74.296875 50.203125 -74.296875 Z M 53.671875 1.609375 C 39.160156 1.609375 27.820312 -2.390625 19.65625 -10.390625 C 11.5 -18.398438 7.421875 -29.738281 7.421875 -44.40625 C 7.421875 -59.5 11.191406 -71.171875 18.734375 -79.421875 C 26.285156 -87.671875 36.722656 -91.796875 50.046875 -91.796875 C 62.773438 -91.796875 72.6875 -88.164062 79.78125 -80.90625 C 86.875 -73.65625 90.421875 -63.640625 90.421875 -50.859375 L 90.421875 -38.921875 L 32.3125 -38.921875 C 32.582031 -31.941406 34.648438 -26.488281 38.515625 -22.5625 C 42.390625 -18.644531 47.816406 -16.6875 54.796875 -16.6875 C 60.222656 -16.6875 65.351562 -17.25 70.1875 -18.375 C 75.03125 -19.5 80.082031 -21.300781 85.34375 -23.78125 L 85.34375 -4.75 C 81.039062 -2.601562 76.445312 -1.007812 71.5625 0.03125 C 66.675781 1.082031 60.710938 1.609375 53.671875 1.609375 Z M 53.671875 1.609375" transform="translate(101.075 175.57)"/></g></g></g><g fill="#AF38A6"><g><g><path d="M 50.203125 -74.296875 C 44.992188 -74.296875 40.910156 -72.644531 37.953125 -69.34375 C 35.003906 -66.039062 33.3125 -61.351562 32.875 -55.28125 L 67.375 -55.28125 C 67.269531 -61.351562 65.6875 -66.039062 62.625 -69.34375 C 59.5625 -72.644531 55.421875 -74.296875 50.203125 -74.296875 Z M 53.671875 1.609375 C 39.160156 1.609375 27.820312 -2.390625 19.65625 -10.390625 C 11.5 -18.398438 7.421875 -29.738281 7.421875 -44.40625 C 7.421875 -59.5 11.191406 -71.171875 18.734375 -79.421875 C 26.285156 -87.671875 36.722656 -91.796875 50.046875 -91.796875 C 62.773438 -91.796875 72.6875 -88.164062 79.78125 -80.90625 C 86.875 -73.65625 90.421875 -63.640625 90.421875 -50.859375 L 90.421875 -38.921875 L 32.3125 -38.921875 C 32.582031 -31.941406 34.648438 -26.488281 38.515625 -22.5625 C 42.390625 -18.644531 47.816406 -16.6875 54.796875 -16.6875 C 60.222656 -16.6875 65.351562 -17.25 70.1875 -18.375 C 75.03125 -19.5 80.082031 -21.300781 85.34375 -23.78125 L 85.34375 -4.75 C 81.039062 -2.601562 76.445312 -1.007812 71.5625 0.03125 C 66.675781 1.082031 60.710938 1.609375 53.671875 1.609375 Z M 53.671875 1.609375" transform="translate(198.59 175.57)"/></g></g></g><g fill="#AF38A6"><g><g><path d="M 119.359375 0 L 87.59375 0 L 36.34375 -89.125 L 35.625 -89.125 C 36.644531 -73.382812 37.15625 -62.160156 37.15625 -55.453125 L 37.15625 0 L 14.828125 0 L 14.828125 -117.828125 L 46.34375 -117.828125 L 97.515625 -29.578125 L 98.078125 -29.578125 C 97.273438 -44.890625 96.875 -55.710938 96.875 -62.046875 L 96.875 -117.828125 L 119.359375 -117.828125 Z M 119.359375 0" transform="translate(338.977 175.57)"/></g></g></g><g fill="#AF38A6"><g><g><path d="M 32.484375 -45.203125 C 32.484375 -36.285156 33.945312 -29.539062 36.875 -24.96875 C 39.800781 -20.40625 44.566406 -18.125 51.171875 -18.125 C 57.722656 -18.125 62.4375 -20.394531 65.3125 -24.9375 C 68.1875 -29.476562 69.625 -36.234375 69.625 -45.203125 C 69.625 -54.128906 68.171875 -60.820312 65.265625 -65.28125 C 62.367188 -69.738281 57.617188 -71.96875 51.015625 -71.96875 C 44.460938 -71.96875 39.734375 -69.75 36.828125 -65.3125 C 33.929688 -60.882812 32.484375 -54.179688 32.484375 -45.203125 Z M 94.765625 -45.203125 C 94.765625 -30.535156 90.894531 -19.066406 83.15625 -10.796875 C 75.425781 -2.523438 64.660156 1.609375 50.859375 1.609375 C 42.203125 1.609375 34.566406 -0.28125 27.953125 -4.0625 C 21.347656 -7.851562 16.273438 -13.296875 12.734375 -20.390625 C 9.191406 -27.484375 7.421875 -35.753906 7.421875 -45.203125 C 7.421875 -59.929688 11.257812 -71.378906 18.9375 -79.546875 C 26.625 -87.710938 37.421875 -91.796875 51.328125 -91.796875 C 59.984375 -91.796875 67.613281 -89.914062 74.21875 -86.15625 C 80.832031 -82.394531 85.910156 -76.992188 89.453125 -69.953125 C 92.992188 -62.910156 94.765625 -54.660156 94.765625 -45.203125 Z M 94.765625 -45.203125" transform="translate(473.159 175.57)"/></g></g></g><g fill="#AF38A6"><g><g><path d="M 50.859375 -17.96875 C 55.148438 -17.96875 60.304688 -18.910156 66.328125 -20.796875 L 66.328125 -2.5 C 60.203125 0.238281 52.679688 1.609375 43.765625 1.609375 C 33.929688 1.609375 26.769531 -0.875 22.28125 -5.84375 C 17.789062 -10.8125 15.546875 -18.265625 15.546875 -28.203125 L 15.546875 -71.640625 L 3.78125 -71.640625 L 3.78125 -82.046875 L 17.328125 -90.265625 L 24.421875 -109.28125 L 40.140625 -109.28125 L 40.140625 -90.09375 L 65.359375 -90.09375 L 65.359375 -71.640625 L 40.140625 -71.640625 L 40.140625 -28.203125 C 40.140625 -24.710938 41.117188 -22.132812 43.078125 -20.46875 C 45.035156 -18.800781 47.628906 -17.96875 50.859375 -17.96875 Z M 50.859375 -17.96875" transform="translate(575.347 175.57)"/></g></g></g><g fill="#AF38A6"><g><g><path d="M 50.203125 -74.296875 C 44.992188 -74.296875 40.910156 -72.644531 37.953125 -69.34375 C 35.003906 -66.039062 33.3125 -61.351562 32.875 -55.28125 L 67.375 -55.28125 C 67.269531 -61.351562 65.6875 -66.039062 62.625 -69.34375 C 59.5625 -72.644531 55.421875 -74.296875 50.203125 -74.296875 Z M 53.671875 1.609375 C 39.160156 1.609375 27.820312 -2.390625 19.65625 -10.390625 C 11.5 -18.398438 7.421875 -29.738281 7.421875 -44.40625 C 7.421875 -59.5 11.191406 -71.171875 18.734375 -79.421875 C 26.285156 -87.671875 36.722656 -91.796875 50.046875 -91.796875 C 62.773438 -91.796875 72.6875 -88.164062 79.78125 -80.90625 C 86.875 -73.65625 90.421875 -63.640625 90.421875 -50.859375 L 90.421875 -38.921875 L 32.3125 -38.921875 C 32.582031 -31.941406 34.648438 -26.488281 38.515625 -22.5625 C 42.390625 -18.644531 47.816406 -16.6875 54.796875 -16.6875 C 60.222656 -16.6875 65.351562 -17.25 70.1875 -18.375 C 75.03125 -19.5 80.082031 -21.300781 85.34375 -23.78125 L 85.34375 -4.75 C 81.039062 -2.601562 76.445312 -1.007812 71.5625 0.03125 C 66.675781 1.082031 60.710938 1.609375 53.671875 1.609375 Z M 53.671875 1.609375" transform="translate(646.99 175.57)"/></g></g></g></svg>