<?xml version="1.0" encoding="UTF-8"?>
<svg width="67px" height="37px" viewBox="0 0 67 37" version="1.1" xmlns="http://www.w3.org/2000/svg" xmlns:xlink="http://www.w3.org/1999/xlink">
    <!-- Generator: Sketch 61.2 (89653) - https://sketch.com -->
    <title>Path</title>
    <desc>Created with Sketch.</desc>
    <g id="Page-1" stroke="none" stroke-width="1" fill="none" fill-rule="evenodd">
        <g id="ngrok-product-page" transform="translate(-234.000000, -1326.000000)" fill="#1F1E37" fill-rule="nonzero">
            <path d="M267.146782,1326.25414 C261.614333,1326.37278 256.387973,1329.03293 253.021785,1333.44292 L252.851,1333.67 L252.946601,1333.69491 C251.647363,1333.33898 250.331086,1333.15726 249.041757,1333.15726 C240.884357,1333.15726 234.25,1339.79362 234.25,1347.95318 C234.25,1356.11345 240.884162,1362.75 249.041757,1362.75 L289.526981,1362.75 C295.716218,1362.75 300.75,1357.71401 300.75,1351.52231 C300.75,1345.33061 295.717119,1340.29641 289.526981,1340.29641 L289.089448,1340.30487 C287.925307,1340.34999 286.783047,1340.57526 285.686149,1340.97598 L285.448,1341.067 L285.482958,1341.24867 C283.91955,1332.55819 276.369534,1326.25 267.533244,1326.25 L267.146782,1326.25414 Z M267.533244,1327.75 C275.643789,1327.75 282.57183,1333.53852 284.006582,1341.51383 C284.078393,1341.91432 284.327312,1342.26068 284.684195,1342.45713 C285.042134,1342.65334 285.469394,1342.67701 285.846173,1342.52229 C287.021764,1342.04074 288.260599,1341.79641 289.526981,1341.79641 C294.888604,1341.79641 299.25,1346.15895 299.25,1351.52231 C299.25,1356.88573 294.887643,1361.25 289.526981,1361.25 L249.041757,1361.25 C241.71271,1361.25 235.75,1355.28514 235.75,1347.95318 C235.75,1340.62195 241.712885,1334.65726 249.041757,1334.65726 C250.195385,1334.65726 251.378526,1334.8206 252.553703,1335.14253 C253.096427,1335.28847 253.67268,1335.08811 254.001395,1334.63799 C257.150613,1330.32456 262.208792,1327.75 267.533244,1327.75 Z" id="Path"></path>
        </g>
    </g>
</svg>