<?xml version="1.0" encoding="UTF-8"?>
<svg width="29px" height="29px" viewBox="0 0 29 29" version="1.1" xmlns="http://www.w3.org/2000/svg" xmlns:xlink="http://www.w3.org/1999/xlink">
    <!-- Generator: Sketch 61.2 (89653) - https://sketch.com -->
    <title>Fill 1</title>
    <desc>Created with Sketch.</desc>
    <g id="Page-1" stroke="none" stroke-width="1" fill="none" fill-rule="evenodd">
        <g id="ngrok-product-page" transform="translate(-706.000000, -5151.000000)" fill="#FFDB62">
            <g id="Group-19" transform="translate(184.000000, 5106.000000)">
                <path d="M548.794677,45.8821293 C549.524198,45.8821293 550.117871,46.4758023 550.117871,47.2053232 L550.117871,71.7946768 C550.117871,72.5241977 549.524198,73.1178707 548.794677,73.1178707 L524.205323,73.1178707 C523.475802,73.1178707 522.882129,72.5241977 522.882129,71.7946768 L522.882129,47.2053232 C522.882129,46.4758023 523.475802,45.8821293 524.205323,45.8821293 L548.794677,45.8821293 Z M551,71.7946768 L551,47.2053232 C551,45.9888669 550.011133,45 548.794677,45 L524.205323,45 C522.988867,45 522,45.9888669 522,47.2053232 L522,71.7946768 C522,73.0111331 522.988867,74 524.205323,74 L548.794677,74 C550.011133,74 551,73.0111331 551,71.7946768 L551,71.7946768 Z M539.144183,59.2322738 C539.1433,57.7723498 537.955954,56.5850038 536.497795,56.5850038 C535.040517,56.5850038 533.854935,57.7723498 533.854935,59.2322738 C533.854935,61.7878023 532.490281,64.1889582 530.292015,65.4962738 L530.743665,66.2549049 C533.207452,64.7888061 534.737065,62.0983118 534.737065,59.2322738 C534.737065,58.258403 535.52657,57.4671331 536.497795,57.4671331 C537.469019,57.4671331 538.261171,58.258403 538.262053,59.2322738 C538.262053,62.706981 536.731559,65.9779163 534.064,68.2079392 L534.628563,68.8845323 C537.498129,66.4869049 539.144183,62.9689734 539.144183,59.2322738 L539.144183,59.2322738 Z M546.021262,59.2331559 C546.021262,53.9818403 541.74911,49.7088061 536.497795,49.707924 C531.247361,49.707924 526.977856,53.9809582 526.977856,59.2322738 L527.859985,59.2322738 C527.859985,56.9281521 528.758875,54.7589962 530.392578,53.1252928 C532.025399,51.4907072 534.192791,50.5909354 536.49603,50.5909354 L536.497795,50.5909354 C541.263057,50.5909354 545.139133,54.4670114 545.139133,59.2331559 C545.139133,60.9312548 544.907133,62.6205323 544.446662,64.2533536 L545.296152,64.4932928 C545.777795,62.7810798 546.021262,61.0115285 546.021262,59.2331559 L546.021262,59.2331559 Z M543.731255,59.2322738 C543.731255,55.2459316 540.488548,52.0032243 536.502205,52.0032243 C532.514099,52.0032243 529.268745,55.2459316 529.267863,59.2322738 C529.267863,60.3252319 528.618616,61.3035133 527.612106,61.7251711 L527.95349,62.5384943 C529.288152,61.9792243 530.149992,60.6816122 530.149992,59.2322738 C530.150875,55.7328669 533.001034,52.8853536 536.502205,52.8853536 C540.001612,52.8853536 542.849125,55.7328669 542.849125,59.2322738 C542.849125,62.2262205 542.021688,65.1619468 540.457673,67.7218859 L541.210129,68.1814753 C542.858829,65.483924 543.731255,62.3894144 543.731255,59.2322738 L543.731255,59.2322738 Z M537.655148,69.1438783 L536.99708,68.5563802 C539.290616,65.9920304 540.552943,62.6805171 540.552943,59.2331559 C540.552061,56.9969582 538.73311,55.1771255 536.497795,55.1771255 L536.49603,55.1771255 C535.417186,55.1771255 534.401856,55.6005475 533.635285,56.3671179 C532.868715,57.1354525 532.447057,58.1525475 532.447057,59.2322738 C532.447057,61.4887605 531.130038,63.5741141 529.090555,64.5418099 L528.71124,63.744365 C530.444624,62.9213384 531.564928,61.1509049 531.564928,59.2322738 C531.564928,56.5091407 533.77819,54.2941141 536.497795,54.2941141 C539.220046,54.2949962 541.43419,56.5109049 541.435072,59.2331559 C541.435072,62.8975209 540.093354,66.4172167 537.655148,69.1438783 L537.655148,69.1438783 Z" id="Fill-1"></path>
            </g>
        </g>
    </g>
</svg>