<?xml version="1.0" encoding="UTF-8"?>
<svg width="61px" height="42px" viewBox="0 0 61 42" version="1.1" xmlns="http://www.w3.org/2000/svg" xmlns:xlink="http://www.w3.org/1999/xlink">
    <!-- Generator: Sketch 61.2 (89653) - https://sketch.com -->
    <title>Combined Shape</title>
    <desc>Created with Sketch.</desc>
    <g id="Page-1" stroke="none" stroke-width="1" fill="none" fill-rule="evenodd">
        <g id="ngrok-product-page" transform="translate(-604.000000, -1323.000000)" fill="#1F1E37" fill-rule="nonzero">
            <path d="M660.620923,1323 C663.03849,1323 665,1324.93792 665,1327.32641 L665,1327.32641 L665,1360.67359 C665,1363.06208 663.03849,1365 660.620923,1365 L660.620923,1365 L608.379077,1365 C605.96151,1365 604,1363.06208 604,1360.67359 L604,1360.67359 L604,1327.32641 C604,1324.93792 605.96151,1323 608.379077,1323 L608.379077,1323 Z M663.496,1333.291 L605.503,1333.291 L605.503408,1360.67359 C605.503408,1362.18575 606.701434,1363.42337 608.210202,1363.50985 L608.379077,1363.51467 L660.620923,1363.51467 C662.20818,1363.51467 663.496592,1362.24176 663.496592,1360.67359 L663.496592,1360.67359 L663.496,1333.291 Z M634.158801,1346.86646 L634.248947,1346.87278 L634.248947,1346.87278 L634.335604,1346.88945 L641.347245,1348.74654 C641.719463,1348.84766 641.93814,1349.2246 641.840433,1349.59234 C641.738073,1349.96008 641.356551,1350.18072 640.984334,1350.0796 L640.984334,1350.0796 L636.489811,1348.88903 L641.952098,1354.28563 C642.226609,1354.55224 642.226609,1354.98893 641.952098,1355.26014 C641.81717,1355.39345 641.635714,1355.4624 641.458911,1355.4624 C641.282107,1355.4624 641.100652,1355.39345 640.965723,1355.26014 L640.965723,1355.26014 L635.503436,1349.86355 L636.708489,1354.30402 C636.806196,1354.67176 636.587518,1355.05329 636.215301,1355.14982 C636.154816,1355.16361 636.09433,1355.1728 636.033845,1355.1728 C635.726766,1355.1728 635.44295,1354.97055 635.359201,1354.66256 L635.359201,1354.66256 L633.479505,1347.73525 C633.465546,1347.67549 633.456241,1347.62033 633.456241,1347.56057 L633.456241,1347.56057 C633.456241,1347.47783 633.474852,1347.39969 633.502768,1347.32614 C633.507421,1347.30775 633.516726,1347.28936 633.526032,1347.27098 C633.558601,1347.19743 633.600475,1347.12848 633.66096,1347.06872 C633.721446,1347.00896 633.791236,1346.96759 633.86568,1346.93541 C633.884291,1346.92622 633.902902,1346.91703 633.921512,1346.91243 C633.995956,1346.88485 634.075052,1346.86646 634.158801,1346.86646 L634.158801,1346.86646 Z M630.436629,1350.25427 C630.706486,1349.98766 631.148494,1349.98766 631.423005,1350.25427 C631.697515,1350.52088 631.697515,1350.95758 631.423005,1351.22878 L631.423005,1351.22878 L629.720111,1352.9112 C629.585182,1353.0445 629.403726,1353.11346 629.226923,1353.11346 C629.05012,1353.11346 628.868664,1353.0445 628.733735,1352.9112 C628.459225,1352.64459 628.459225,1352.20789 628.733735,1351.93669 L628.733735,1351.93669 Z M629.589835,1346.86646 C629.97601,1346.86646 630.287742,1347.17444 630.287742,1347.55598 C630.287742,1347.93751 629.97601,1348.24549 629.589835,1348.24549 L629.589835,1348.24549 L627.179729,1348.24549 C626.798206,1348.24549 626.481821,1347.93751 626.481821,1347.55598 C626.481821,1347.17444 626.793553,1346.86646 627.179729,1346.86646 L627.179729,1346.86646 Z M638.592838,1342.20075 C638.862696,1341.92954 639.304704,1341.92954 639.579214,1342.20075 C639.853724,1342.46736 639.853724,1342.90406 639.579214,1343.17527 L639.579214,1343.17527 L637.87632,1344.85768 C637.741391,1344.99098 637.559935,1345.05994 637.383132,1345.05994 C637.201676,1345.05994 637.024873,1344.99098 636.889945,1344.85768 C636.615434,1344.59107 636.615434,1344.15437 636.889945,1343.88317 L636.889945,1343.88317 Z M628.733735,1342.20075 C629.003593,1341.92954 629.445601,1341.92954 629.720111,1342.20075 L629.720111,1342.20075 L631.423005,1343.88317 C631.697515,1344.14978 631.697515,1344.58647 631.423005,1344.85768 C631.288076,1344.99098 631.10662,1345.05994 630.929817,1345.05994 C630.753014,1345.05994 630.571558,1344.99098 630.436629,1344.85768 L630.436629,1344.85768 L628.733735,1343.17527 C628.459225,1342.90865 628.459225,1342.47196 628.733735,1342.20075 Z M634.154148,1339.97592 C634.540324,1339.97592 634.852055,1340.2839 634.852055,1340.66544 L634.852055,1340.66544 L634.852055,1343.04656 C634.852055,1343.42809 634.540324,1343.73607 634.154148,1343.73607 C633.767973,1343.73607 633.456241,1343.42809 633.456241,1343.04656 L633.456241,1343.04656 L633.456241,1340.66544 C633.456241,1340.2839 633.767973,1339.97592 634.154148,1339.97592 Z M660.620923,1324.48533 L608.379077,1324.48533 C606.79182,1324.48533 605.503408,1325.75824 605.503408,1327.32641 L605.503408,1327.32641 L605.503,1331.806 L663.496,1331.806 L663.496592,1327.32641 C663.496592,1325.81425 662.298566,1324.57663 660.789798,1324.49015 L660.620923,1324.48533 Z M610.247142,1327.54131 C610.771736,1327.54131 611.19397,1327.95847 611.19397,1328.47675 C611.19397,1328.98871 610.765338,1329.41219 610.247142,1329.41219 C609.728946,1329.41219 609.300315,1328.98871 609.300315,1328.47675 C609.300315,1327.96479 609.728946,1327.54131 610.247142,1327.54131 Z M613.650603,1327.54131 C614.173521,1327.54131 614.597431,1327.96012 614.597431,1328.47675 C614.597431,1328.99338 614.173521,1329.41219 613.650603,1329.41219 C613.127685,1329.41219 612.703776,1328.99338 612.703776,1328.47675 C612.703776,1327.96012 613.127685,1327.54131 613.650603,1327.54131 Z M617.047666,1327.54131 C617.570585,1327.54131 617.994494,1327.96012 617.994494,1328.47675 C617.994494,1328.99338 617.570585,1329.41219 617.047666,1329.41219 C616.524748,1329.41219 616.100839,1328.99338 616.100839,1328.47675 C616.100839,1327.96012 616.524748,1327.54131 617.047666,1327.54131 Z" id="Combined-Shape"></path>
        </g>
    </g>
</svg>