<?xml version="1.0" encoding="UTF-8"?>
<svg width="59px" height="61px" viewBox="0 0 59 61" version="1.1" xmlns="http://www.w3.org/2000/svg" xmlns:xlink="http://www.w3.org/1999/xlink">
    <!-- Generator: Sketch 61.2 (89653) - https://sketch.com -->
    <title>Combined Shape</title>
    <desc>Created with Sketch.</desc>
    <g id="Page-1" stroke="none" stroke-width="1" fill="none" fill-rule="evenodd">
        <g id="ngrok-product-page" transform="translate(-603.000000, -1544.000000)" fill="#1F1E37" fill-rule="nonzero">
            <path d="M629.61079,1587.0294 C631.624705,1587.0294 633.302723,1588.67915 633.302723,1590.68162 L633.302723,1590.68162 L633.302723,1601.34779 C633.302723,1603.35026 631.624705,1605 629.61079,1605 L629.61079,1605 L606.707407,1605 C604.693492,1605 603.015474,1603.35026 603.015474,1601.34779 L603.015474,1601.34779 L603.015474,1590.68162 C603.015474,1588.67915 604.693492,1587.0294 606.707407,1587.0294 L606.707407,1587.0294 Z M653.274794,1544 C656.252244,1544 658.774173,1546.51776 658.889862,1549.54162 L658.894007,1549.75845 L658.894989,1568.47375 C660.695376,1569.00269 662,1570.67799 662,1572.68003 L662,1572.68003 L662,1600.60676 C662,1603.03781 660.076345,1604.98709 657.677262,1604.98709 L657.677262,1604.98709 L639.392577,1604.98709 C636.993494,1604.98709 635.069839,1603.03781 635.069839,1600.60676 L635.069839,1600.60676 L635.069,1584.589 L608.619213,1584.58965 C605.641763,1584.58965 603.119834,1582.07189 603.004145,1579.04803 L603,1578.8312 L603,1549.75845 C603,1546.71162 605.452687,1544.12301 608.407339,1544.00425 L608.619213,1544 L653.274794,1544 Z M629.61079,1588.53986 L606.707407,1588.53986 C605.506813,1588.53986 604.506073,1589.52374 604.506073,1590.68162 L604.506073,1590.68162 L604.506073,1601.34779 C604.506073,1602.50566 605.506813,1603.48954 606.707407,1603.48954 L606.707407,1603.48954 L629.61079,1603.48954 C630.811384,1603.48954 631.812124,1602.50566 631.812124,1601.34779 L631.812124,1601.34779 L631.812124,1590.68162 C631.812124,1589.52374 630.811384,1588.53986 629.61079,1588.53986 L629.61079,1588.53986 Z M660.509,1598.24 L636.56,1598.24 L636.560439,1600.60676 C636.560439,1602.14657 637.728597,1603.38529 639.225002,1603.4718 L639.392577,1603.47663 L657.677262,1603.47663 C659.25311,1603.47663 660.509401,1602.2036 660.509401,1600.60676 L660.509401,1600.60676 L660.509,1598.24 Z M621.886023,1591.25942 L622.900981,1592.36563 L613.463773,1601.25659 L610.288518,1598.50343 L611.257624,1597.35577 L613.422363,1599.2319 L621.886023,1591.25942 Z M657.677262,1569.81016 L639.392577,1569.81016 C637.816729,1569.81016 636.560439,1571.08319 636.560439,1572.68003 L636.560439,1572.68003 L636.56,1596.729 L660.509,1596.729 L660.509401,1572.68003 C660.509401,1571.14022 659.341243,1569.9015 657.844837,1569.81499 L657.677262,1569.81016 Z M653.685474,1579.17574 L654.700433,1580.28195 L645.263224,1589.17291 L642.08797,1586.41975 L643.057075,1585.27209 L645.221814,1587.14822 L653.685474,1579.17574 Z M635.069,1576.456 L604.49,1576.456 L604.490599,1578.8312 C604.490599,1581.05134 606.284583,1582.96019 608.418232,1583.07384 L608.619213,1583.07919 L635.069,1583.079 L635.069,1576.456 Z M633.231434,1578.97362 L633.231434,1580.48408 L626.672797,1580.48408 L626.672797,1578.97362 L633.231434,1578.97362 Z M653.274794,1545.51046 L608.619213,1545.51046 C606.465754,1545.51046 604.606514,1547.35204 604.495811,1549.55127 L604.490599,1549.75845 L604.49,1574.945 L635.069,1574.945 L635.069839,1572.68003 C635.069839,1570.32049 636.882002,1568.41478 639.182164,1568.30472 L639.392577,1568.2997 L657.403,1568.299 L657.403408,1549.75845 C657.403408,1547.53831 655.609425,1545.62946 653.475775,1545.51581 L653.274794,1545.51046 Z M637.785748,1555.30947 L638.800707,1556.41569 L629.363498,1565.30664 L626.188244,1562.55348 L627.157349,1561.40582 L629.322089,1563.28195 L637.785748,1555.30947 Z" id="Combined-Shape"></path>
        </g>
    </g>
</svg>