<?xml version="1.0" encoding="UTF-8"?><svg xmlns="http://www.w3.org/2000/svg" xmlns:xlink="http://www.w3.org/1999/xlink" contentScriptType="text/ecmascript" width="125.25" zoomAndPan="magnify" contentStyleType="text/css" viewBox="0 0 125.25 119.999999" height="119.999999" preserveAspectRatio="xMidYMid meet" version="1.0"><defs><clipPath id="clip-0"><path d="M 0 0.355469 L 41.003906 0.355469 L 41.003906 41.363281 L 0 41.363281 Z M 0 0.355469 " clip-rule="nonzero"/></clipPath><clipPath id="clip-1"><path d="M 19.429688 12.285156 L 124.503906 12.285156 L 124.503906 119.640625 L 19.429688 119.640625 Z M 19.429688 12.285156 " clip-rule="nonzero"/></clipPath></defs><g clip-path="url(#clip-0)"><path fill="rgb(32.939148%, 32.939148%, 32.939148%)" d="M 20.503906 0.355469 C 9.199219 0.355469 0 9.558594 0 20.859375 C 0 32.160156 9.199219 41.363281 20.503906 41.363281 C 31.804688 41.363281 41.003906 32.160156 41.003906 20.859375 C 41.003906 9.558594 31.804688 0.355469 20.503906 0.355469 Z M 29.589844 30.230469 C 29.589844 30.542969 29.332031 30.796875 29.019531 30.796875 L 11.925781 30.796875 C 11.613281 30.796875 11.359375 30.542969 11.359375 30.230469 L 11.359375 29.578125 C 11.359375 28.441406 12.265625 27.53125 13.402344 27.53125 L 27.542969 27.53125 C 28.679688 27.53125 29.589844 28.441406 29.589844 29.578125 Z M 29.675781 17.226562 L 20.871094 25.828125 C 20.757812 25.941406 20.617188 26 20.472656 26 C 20.332031 26 20.191406 25.941406 20.078125 25.828125 L 11.273438 17.226562 C 11.101562 17.054688 11.046875 16.828125 11.132812 16.601562 C 11.214844 16.371094 11.414062 16.257812 11.671875 16.257812 L 16.074219 16.257812 L 16.074219 11.433594 C 16.074219 10.125 17.152344 9.046875 18.457031 9.046875 L 22.375 9.046875 C 23.683594 9.046875 24.761719 10.125 24.761719 11.433594 L 24.761719 16.257812 L 29.277344 16.257812 C 29.503906 16.257812 29.703125 16.402344 29.816406 16.601562 C 29.929688 16.796875 29.84375 17.082031 29.675781 17.226562 Z M 29.675781 17.226562 " fill-opacity="1" fill-rule="nonzero"/></g><g clip-path="url(#clip-1)"><path fill="rgb(32.939148%, 32.939148%, 32.939148%)" d="M 71.988281 12.628906 C 43.074219 12.628906 19.429688 34.550781 19.429688 61.738281 C 19.429688 76.605469 26.585938 89.800781 37.710938 98.785156 L 37.710938 119.199219 L 41.066406 117.417969 L 57.5625 108.851562 C 62.167969 110.082031 66.964844 110.847656 71.988281 110.847656 C 100.902344 110.847656 124.550781 88.925781 124.550781 61.738281 C 124.550781 34.550781 100.902344 12.628906 71.988281 12.628906 Z M 71.988281 17.195312 C 98.597656 17.195312 119.980469 37.199219 119.980469 61.738281 C 119.980469 86.277344 98.597656 106.28125 71.988281 106.28125 C 67.042969 106.28125 62.257812 105.566406 57.777344 104.28125 L 56.921875 104.066406 L 56.136719 104.496094 L 42.28125 111.707031 L 42.28125 96.714844 L 41.425781 96.074219 C 30.765625 87.875 24 75.53125 24 61.738281 C 24 37.199219 45.378906 17.195312 71.988281 17.195312 Z M 66.777344 48.53125 L 39.28125 77.65625 L 63.992188 63.808594 L 77.203125 77.941406 L 104.339844 48.53125 L 80.273438 62.023438 Z M 66.777344 48.53125 " fill-opacity="1" fill-rule="nonzero"/></g></svg>