<?xml version="1.0" encoding="UTF-8"?><svg xmlns="http://www.w3.org/2000/svg" xmlns:xlink="http://www.w3.org/1999/xlink" contentScriptType="text/ecmascript" width="42" zoomAndPan="magnify" contentStyleType="text/css" viewBox="0 0 42 42" height="42" preserveAspectRatio="xMidYMid meet" version="1.0"><defs><clipPath id="clip-0"><path d="M 0.488281 0 L 41.511719 0 L 41.511719 41 L 0.488281 41 Z M 0.488281 0 " clip-rule="nonzero"/></clipPath></defs><g clip-path="url(#clip-0)"><path fill="rgb(100%, 100%, 100%)" d="M 36.917969 0 C 30.097656 0 20.949219 4.679688 14.804688 12.71875 L 9.710938 12.71875 C 6.03125 12.71875 3.921875 15.46875 2.46875 18.371094 L 0.523438 22.261719 L 9.710938 22.261719 L 19.25 31.800781 L 19.25 40.988281 L 23.140625 39.042969 C 26.046875 37.589844 28.792969 35.480469 28.792969 31.800781 L 28.792969 26.707031 C 36.835938 20.5625 41.511719 11.414062 41.511719 4.597656 L 41.511719 0 Z M 28.792969 9.539062 C 30.546875 9.539062 31.972656 10.964844 31.972656 12.71875 C 31.972656 14.476562 30.546875 15.902344 28.792969 15.902344 C 27.035156 15.902344 25.613281 14.476562 25.613281 12.71875 C 25.613281 10.964844 27.035156 9.539062 28.792969 9.539062 Z M 8.121094 28.621094 L 6.53125 30.210938 C 4.234375 32.507812 3.351562 38.160156 3.351562 38.160156 C 3.351562 38.160156 8.75 37.53125 11.300781 34.980469 L 12.890625 33.390625 Z M 8.121094 28.621094 " fill-opacity="1" fill-rule="nonzero"/></g></svg>