<?xml version="1.0" encoding="UTF-8"?><svg xmlns="http://www.w3.org/2000/svg" xmlns:xlink="http://www.w3.org/1999/xlink" contentScriptType="text/ecmascript" width="125.25" zoomAndPan="magnify" contentStyleType="text/css" viewBox="0 0 125.25 119.999999" height="119.999999" preserveAspectRatio="xMidYMid meet" version="1.0"><defs><clipPath id="clip-0"><path d="M 2.609375 0.355469 L 121.894531 0.355469 L 121.894531 119.640625 L 2.609375 119.640625 Z M 2.609375 0.355469 " clip-rule="nonzero"/></clipPath></defs><path fill="rgb(32.939148%, 32.939148%, 32.939148%)" d="M 97.445312 64.410156 L 100.167969 67.132812 L 102.316406 64.984375 C 99.84375 84.914062 82.835938 100.402344 62.253906 100.402344 C 60.457031 100.402344 58.636719 100.28125 56.855469 100.050781 L 56.351562 103.859375 C 58.300781 104.117188 60.28125 104.25 62.253906 104.25 C 85.160156 104.25 104.054688 86.753906 106.285156 64.417969 L 108.992188 67.132812 L 111.710938 64.410156 L 104.578125 57.28125 L 97.445312 64.410156 " fill-opacity="1" fill-rule="nonzero"/><path fill="rgb(32.939148%, 32.939148%, 32.939148%)" d="M 61.191406 21.722656 L 58.097656 20.175781 C 59.492188 19.851562 60.890625 19.597656 62.253906 19.597656 C 65.964844 19.597656 69.640625 20.101562 73.179688 21.09375 L 74.21875 17.386719 C 70.347656 16.296875 66.316406 15.75 62.253906 15.75 C 60.164062 15.75 58.179688 16.167969 56.253906 16.660156 L 58.203125 12.765625 L 54.757812 11.035156 L 50.046875 20.460938 L 59.464844 25.164062 L 61.191406 21.722656 " fill-opacity="1" fill-rule="nonzero"/><path fill="rgb(32.939148%, 32.939148%, 32.939148%)" d="M 13.289062 67.492188 L 22.714844 72.207031 L 27.417969 62.789062 L 23.976562 61.058594 L 22.324219 64.367188 C 22.042969 63.210938 21.847656 61.871094 21.847656 60 C 21.847656 56.851562 22.210938 53.722656 22.921875 50.6875 L 19.179688 49.808594 C 18.398438 53.125 18 56.558594 18 60 C 18 62.609375 18.339844 64.417969 18.753906 65.921875 L 15.015625 64.050781 L 13.289062 67.492188 " fill-opacity="1" fill-rule="nonzero"/><g clip-path="url(#clip-0)"><path fill="rgb(32.939148%, 32.939148%, 32.939148%)" d="M 85.753906 41.382812 C 87.21875 35.394531 92.546875 31.140625 98.808594 31.140625 C 105.066406 31.140625 110.394531 35.394531 111.863281 41.382812 C 108.425781 44.570312 103.84375 46.53125 98.808594 46.53125 C 93.773438 46.53125 89.1875 44.570312 85.753906 41.382812 Z M 91.007812 58.074219 L 79.515625 58.074219 C 79.394531 53.957031 78.898438 50.070312 78.074219 46.53125 L 86.078125 46.53125 C 86.8125 47.019531 87.578125 47.457031 88.375 47.863281 C 89.894531 51.125 90.765625 54.550781 91.007812 58.074219 Z M 72.058594 87.109375 C 74.058594 84.554688 75.734375 81.207031 76.996094 77.316406 L 85.289062 77.316406 C 81.941406 81.75 77.367188 85.183594 72.058594 87.109375 Z M 42.277344 77.316406 L 47.507812 77.316406 C 48.769531 81.207031 50.445312 84.5625 52.453125 87.117188 C 51.65625 86.824219 50.882812 86.484375 50.113281 86.125 C 48.296875 82.554688 45.597656 79.519531 42.277344 77.316406 Z M 45.523438 107.257812 C 43.75 102.929688 40.316406 99.554688 36.046875 97.824219 C 37.945312 96.066406 39.164062 93.570312 39.164062 90.785156 C 39.164062 85.476562 34.851562 81.164062 29.542969 81.164062 C 24.238281 81.164062 19.925781 85.476562 19.925781 90.785156 C 19.925781 93.570312 21.140625 96.066406 23.042969 97.824219 C 18.773438 99.554688 15.339844 102.929688 13.566406 107.257812 C 11.507812 104.191406 10.304688 100.507812 10.304688 96.554688 C 10.304688 85.945312 18.941406 77.316406 29.542969 77.316406 C 40.15625 77.316406 48.785156 85.945312 48.785156 96.554688 C 48.785156 100.507812 47.582031 104.191406 45.523438 107.257812 Z M 23.773438 90.785156 C 23.773438 87.597656 26.359375 85.011719 29.542969 85.011719 C 32.730469 85.011719 35.316406 87.597656 35.316406 90.785156 C 35.316406 93.96875 32.730469 96.554688 29.542969 96.554688 C 26.359375 96.554688 23.773438 93.96875 23.773438 90.785156 Z M 16.492188 110.648438 C 17.957031 104.65625 23.285156 100.402344 29.542969 100.402344 C 35.804688 100.402344 41.132812 104.65625 42.597656 110.648438 C 39.164062 113.832031 34.582031 115.796875 29.542969 115.796875 C 24.507812 115.796875 19.925781 113.832031 16.492188 110.648438 Z M 25.695312 42.683594 C 20.660156 42.683594 16.078125 40.722656 12.640625 37.535156 C 14.109375 31.546875 19.445312 27.292969 25.695312 27.292969 C 31.890625 27.292969 37.179688 31.457031 38.714844 37.347656 C 38.367188 37.703125 38.042969 38.070312 37.714844 38.4375 C 34.421875 41.089844 30.242188 42.683594 25.695312 42.683594 Z M 19.925781 17.671875 C 19.925781 14.484375 22.511719 11.902344 25.695312 11.902344 C 28.882812 11.902344 31.46875 14.484375 31.46875 17.671875 C 31.46875 20.859375 28.882812 23.445312 25.695312 23.445312 C 22.511719 23.445312 19.925781 20.859375 19.925781 17.671875 Z M 25.695312 4.203125 C 36.308594 4.203125 44.9375 12.832031 44.9375 23.445312 C 44.9375 27.398438 43.734375 31.082031 41.675781 34.148438 C 39.902344 29.816406 36.464844 26.445312 32.199219 24.714844 C 34.097656 22.957031 35.316406 20.460938 35.316406 17.671875 C 35.316406 12.367188 31.003906 8.054688 25.695312 8.054688 C 20.390625 8.054688 16.078125 12.367188 16.078125 17.671875 C 16.078125 20.460938 17.292969 22.957031 19.195312 24.714844 C 14.925781 26.445312 11.492188 29.816406 9.71875 34.148438 C 7.660156 31.082031 6.457031 27.398438 6.457031 23.445312 C 6.457031 12.832031 15.09375 4.203125 25.695312 4.203125 Z M 52.445312 32.890625 C 50.445312 35.445312 48.769531 38.792969 47.507812 42.683594 L 39.21875 42.683594 C 39.570312 42.21875 39.929688 41.753906 40.308594 41.300781 C 41.496094 40.332031 42.585938 39.242188 43.554688 38.054688 C 46.160156 35.835938 49.167969 34.085938 52.445312 32.890625 Z M 51.582031 42.683594 C 54.066406 35.734375 57.960938 31.140625 62.253906 31.140625 C 66.542969 31.140625 70.4375 35.734375 72.925781 42.683594 Z M 48.828125 58.074219 C 48.964844 53.957031 49.511719 50.035156 50.398438 46.53125 L 74.105469 46.53125 C 74.992188 50.035156 75.539062 53.957031 75.675781 58.074219 Z M 36.746094 46.53125 L 46.433594 46.53125 C 45.605469 50.070312 45.109375 53.957031 44.988281 58.074219 L 33.492188 58.074219 C 33.769531 53.925781 34.894531 50.019531 36.746094 46.53125 Z M 33.460938 61.925781 L 44.988281 61.925781 C 45.109375 66.042969 45.605469 69.929688 46.433594 73.46875 L 36.757812 73.46875 C 34.859375 69.882812 33.730469 65.953125 33.460938 61.925781 Z M 62.253906 88.859375 C 57.960938 88.859375 54.066406 84.265625 51.582031 77.316406 L 72.925781 77.316406 C 70.4375 84.265625 66.542969 88.859375 62.253906 88.859375 Z M 74.105469 73.46875 L 50.398438 73.46875 C 49.511719 69.964844 48.964844 66.042969 48.828125 61.925781 L 75.675781 61.925781 C 75.539062 66.042969 74.992188 69.964844 74.105469 73.46875 Z M 91.015625 61.925781 C 90.734375 66.074219 89.609375 69.980469 87.761719 73.46875 L 78.074219 73.46875 C 78.898438 69.929688 79.394531 66.042969 79.515625 61.925781 Z M 81.648438 42.683594 L 76.996094 42.683594 C 75.726562 38.785156 74.050781 35.433594 72.042969 32.875 C 73.832031 33.523438 75.554688 34.355469 77.207031 35.363281 C 78.222656 38.085938 79.742188 40.558594 81.648438 42.683594 Z M 93.035156 21.519531 C 93.035156 18.335938 95.621094 15.75 98.808594 15.75 C 101.992188 15.75 104.578125 18.335938 104.578125 21.519531 C 104.578125 24.707031 101.992188 27.292969 98.808594 27.292969 C 95.621094 27.292969 93.035156 24.707031 93.035156 21.519531 Z M 98.808594 8.054688 C 109.417969 8.054688 118.046875 16.679688 118.046875 27.292969 C 118.046875 31.246094 116.84375 34.929688 114.785156 37.996094 C 113.011719 33.664062 109.578125 30.292969 105.308594 28.5625 C 107.210938 26.804688 108.425781 24.308594 108.425781 21.519531 C 108.425781 16.214844 104.113281 11.902344 98.808594 11.902344 C 93.5 11.902344 89.1875 16.214844 89.1875 21.519531 C 89.1875 24.308594 90.40625 26.804688 92.304688 28.5625 C 88.039062 30.292969 84.601562 33.664062 82.828125 37.996094 C 80.769531 34.929688 79.566406 31.246094 79.566406 27.292969 C 79.566406 16.679688 88.195312 8.054688 98.808594 8.054688 Z M 98.808594 4.203125 C 86.078125 4.203125 75.71875 14.5625 75.71875 27.292969 C 75.71875 28.320312 75.808594 29.328125 75.9375 30.328125 C 71.652344 28.335938 67.003906 27.292969 62.253906 27.292969 C 56.960938 27.292969 51.980469 28.585938 47.550781 30.824219 C 48.339844 28.503906 48.785156 26.03125 48.785156 23.445312 C 48.785156 10.714844 38.429688 0.355469 25.695312 0.355469 C 12.964844 0.355469 2.609375 10.714844 2.609375 23.445312 C 2.609375 36.175781 12.964844 46.53125 25.695312 46.53125 C 28.28125 46.53125 30.753906 46.089844 33.078125 45.300781 C 30.835938 49.726562 29.542969 54.710938 29.542969 60 C 29.542969 64.75 30.589844 69.402344 32.582031 73.6875 C 31.582031 73.558594 30.574219 73.46875 29.542969 73.46875 C 16.8125 73.46875 6.457031 83.824219 6.457031 96.554688 C 6.457031 109.285156 16.8125 119.644531 29.542969 119.644531 C 42.277344 119.644531 52.632812 109.285156 52.632812 96.554688 C 52.632812 94.632812 52.371094 92.773438 51.925781 90.984375 C 55.253906 92.113281 58.710938 92.707031 62.253906 92.707031 C 80.289062 92.707031 94.960938 78.039062 94.960938 60 C 94.960938 56.460938 94.367188 53.003906 93.238281 49.671875 C 95.027344 50.117188 96.882812 50.378906 98.808594 50.378906 C 111.539062 50.378906 121.894531 40.023438 121.894531 27.292969 C 121.894531 14.5625 111.539062 4.203125 98.808594 4.203125 " fill-opacity="1" fill-rule="nonzero"/></g></svg>