<?xml version="1.0" encoding="UTF-8"?>
<svg width="55px" height="66px" viewBox="0 0 55 66" version="1.1" xmlns="http://www.w3.org/2000/svg" xmlns:xlink="http://www.w3.org/1999/xlink">
    <!-- Generator: Sketch 61.2 (89653) - https://sketch.com -->
    <title>Shape</title>
    <desc>Created with Sketch.</desc>
    <g id="Page-1" stroke="none" stroke-width="1" fill="none" fill-rule="evenodd">
        <g id="ngrok-product-page" transform="translate(-234.000000, -1539.000000)" fill="#1F1E37" fill-rule="nonzero">
            <path d="M240.08722,1539 C236.725742,1539 234,1541.75326 234,1545.13953 L234,1598.86047 C234,1602.24673 236.725742,1605 240.08722,1605 L267.467776,1605 C270.829254,1605 273.555073,1602.24673 273.555073,1598.86047 L273.555073,1595.04724 C273.558892,1594.77047 273.414154,1594.51304 273.176205,1594.37351 C272.938257,1594.23398 272.643962,1594.23398 272.406014,1594.37351 C272.168065,1594.51304 272.023327,1594.77047 272.027223,1595.04724 L272.027223,1598.86047 C272.027223,1601.42648 270.00579,1603.46512 267.467776,1603.46512 L240.08722,1603.46512 C237.549206,1603.46512 235.527773,1601.42648 235.527773,1598.86047 L235.527773,1545.13953 C235.527773,1542.57353 237.549206,1540.53488 240.08722,1540.53488 L267.467776,1540.53488 C270.00579,1540.53488 272.027223,1542.57353 272.027223,1545.13953 L272.027223,1549.55233 C272.023327,1549.82909 272.168065,1550.08653 272.406014,1550.22605 C272.643962,1550.36558 272.938257,1550.36558 273.176205,1550.22605 C273.414154,1550.08653 273.558892,1549.82909 273.555073,1549.55233 L273.555073,1545.13953 C273.555073,1541.75326 270.829254,1539 267.467776,1539 L240.08722,1539 Z M272.695624,1554.03706 C272.602924,1554.0528 272.513919,1554.08531 272.433038,1554.13299 L257.035951,1562.98256 C256.79583,1563.12131 256.649787,1563.37807 256.653919,1563.65407 L256.653919,1581.32922 C256.649787,1581.60522 256.79583,1581.86198 257.035951,1582.00073 L272.433038,1590.82631 C272.675635,1590.9703 272.978199,1590.9703 273.220796,1590.82631 L288.617882,1582.00073 C288.858004,1581.86198 289.004046,1581.60522 288.999915,1581.32922 L288.999915,1563.65407 C289.004046,1563.37807 288.858004,1563.12131 288.617882,1562.98256 L273.220796,1554.13299 C273.083164,1554.05535 272.924758,1554.02184 272.767238,1554.03706 C272.74338,1554.03596 272.719482,1554.03596 272.695624,1554.03706 Z M272.814981,1555.69186 L287.472053,1564.08576 L287.472053,1580.89753 L272.814981,1589.29142 L258.181781,1580.89753 L258.181781,1564.97311 L272.051095,1572.91134 L272.051095,1583.77544 C272.047199,1584.0522 272.191936,1584.30964 272.429885,1584.44916 C272.667834,1584.58869 272.962128,1584.58869 273.200077,1584.44916 C273.438026,1584.30964 273.582764,1584.0522 273.578867,1583.77544 L273.578867,1572.93532 L283.103577,1567.49128 C283.342373,1567.35419 283.490233,1567.09952 283.491457,1566.82321 C283.492682,1566.5469 283.347086,1566.29092 283.109514,1566.1517 C282.871942,1566.01248 282.578487,1566.01117 282.33969,1566.14826 L272.838852,1571.5923 L258.969539,1563.63009 L272.814981,1555.69186 Z M248.8003,1598.28488 C248.378417,1598.32462 248.068477,1598.70043 248.108028,1599.12427 C248.14758,1599.54812 248.521646,1599.8595 248.943529,1599.81977 L258.611467,1599.81977 C258.886952,1599.82368 259.143194,1599.67827 259.282074,1599.43921 C259.420953,1599.20016 259.420953,1598.90449 259.282074,1598.66544 C259.143194,1598.42638 258.886952,1598.28097 258.611467,1598.28488 L248.943529,1598.28488 C248.895891,1598.28038 248.847938,1598.28038 248.8003,1598.28488 Z" id="Shape"></path>
        </g>
    </g>
</svg>