<?xml version="1.0" encoding="UTF-8"?>
<svg width="38px" height="22px" viewBox="0 0 38 22" version="1.1" xmlns="http://www.w3.org/2000/svg" xmlns:xlink="http://www.w3.org/1999/xlink">
    <!-- Generator: Sketch 61.2 (89653) - https://sketch.com -->
    <title>Fill 1</title>
    <desc>Created with Sketch.</desc>
    <g id="Page-1" stroke="none" stroke-width="1" fill="none" fill-rule="evenodd">
        <g id="ngrok-product-page" transform="translate(-690.000000, -4185.000000)" fill="#FFDB62">
            <path d="M722.449158,4185.36481 L722.339299,4188.65913 L726.631764,4203.88155 L722.939525,4203.46649 L722.828668,4204.46544 L728,4205.04733 L722.449158,4185.36481 Z M713.038293,4202.03038 L717.819128,4202.03038 L717.819128,4201.0254 L713.038293,4201.0254 L713.038293,4202.03038 Z M711.353465,4198.51295 L717.799154,4198.51295 L717.799154,4197.50797 L711.353465,4197.50797 L711.353465,4198.51295 Z M711.678047,4194.49303 L719.179374,4194.49303 L719.179374,4193.48805 L711.678047,4193.48805 L711.678047,4194.49303 Z M710.570475,4190.47312 L719.179374,4190.47312 L719.179374,4189.46814 L710.570475,4189.46814 L710.570475,4190.47312 Z M692.702515,4202.53287 L697.781965,4202.53287 L697.781965,4201.52789 L692.702515,4201.52789 L692.702515,4202.53287 Z M693.701227,4198.51295 L697.781965,4198.51295 L697.781965,4197.50797 L693.701227,4197.50797 L693.701227,4198.51295 Z M693.701227,4194.49303 L697.781965,4194.49303 L697.781965,4193.48805 L693.701227,4193.48805 L693.701227,4194.49303 Z M693.701227,4190.47312 L697.781965,4190.47312 L697.781965,4189.46814 L693.701227,4189.46814 L693.701227,4190.47312 Z M703.522563,4194.46891 L705.103524,4194.46891 C705.729717,4194.46891 706.476754,4194.27998 706.476754,4193.37952 C706.476754,4192.47805 705.729717,4192.29012 705.103524,4192.29012 L703.522563,4192.29012 L703.522563,4194.46891 Z M705.103524,4195.33119 L702.665668,4195.33119 L702.665668,4191.42684 L705.103524,4191.42684 C706.478751,4191.42684 707.333649,4192.17455 707.333649,4193.37952 C707.333649,4194.58348 706.478751,4195.33119 705.103524,4195.33119 L705.103524,4195.33119 Z M708.327367,4201.16811 L709.531814,4201.16811 L705.426108,4196.17738 L706.09924,4196.01859 C707.128913,4195.77338 708.357329,4195.11813 708.357329,4193.37952 C708.357329,4191.65598 707.168861,4190.54246 705.328235,4190.54246 L701.639991,4190.54246 L701.639991,4201.16811 L702.665668,4201.16811 L702.665668,4196.11909 L704.147757,4196.11909 L708.327367,4201.16811 Z M711.353465,4202.03038 L707.925885,4202.03038 L703.745276,4196.98136 L703.522563,4196.98136 L703.522563,4202.03038 L700.784094,4202.03038 L700.784094,4189.68019 L705.328235,4189.68019 C707.616284,4189.68019 709.214224,4191.20173 709.214224,4193.37952 C709.214224,4194.96035 708.412258,4196.10603 706.939157,4196.66178 L711.353465,4202.03038 Z M691.047649,4205.99502 L720.493679,4205.99502 L721.444453,4186.00498 L691.998423,4186.00498 L691.047649,4205.99502 Z M721.445452,4207 L690,4207 L691.04665,4185 L722.492102,4185 L721.445452,4207 Z" id="Fill-1"></path>
        </g>
    </g>
</svg>