<?xml version="1.0" encoding="UTF-8"?><svg xmlns="http://www.w3.org/2000/svg" xmlns:xlink="http://www.w3.org/1999/xlink" contentScriptType="text/ecmascript" width="125.25" zoomAndPan="magnify" contentStyleType="text/css" viewBox="0 0 125.25 119.999999" height="119.999999" preserveAspectRatio="xMidYMid meet" version="1.0"><defs><clipPath id="clip-0"><path d="M 20 0.941406 L 120.457031 0.941406 L 120.457031 118.734375 L 20 118.734375 Z M 20 0.941406 " clip-rule="nonzero"/></clipPath><clipPath id="clip-1"><path d="M 4.152344 2 L 58 2 L 58 85 L 4.152344 85 Z M 4.152344 2 " clip-rule="nonzero"/></clipPath></defs><path fill="rgb(32.939148%, 32.939148%, 32.939148%)" d="M 91.855469 77.730469 C 95.625 77.730469 98.6875 80.777344 98.6875 84.535156 C 98.6875 88.289062 95.625 91.339844 91.855469 91.339844 C 88.089844 91.339844 85.027344 88.289062 85.027344 84.535156 C 85.027344 80.777344 88.089844 77.730469 91.855469 77.730469 Z M 81.214844 84.535156 C 81.214844 90.382812 85.988281 95.136719 91.855469 95.136719 C 97.726562 95.136719 102.5 90.382812 102.5 84.535156 C 102.5 78.6875 97.726562 73.929688 91.855469 73.929688 C 85.988281 73.929688 81.214844 78.6875 81.214844 84.535156 " fill-opacity="1" fill-rule="nonzero"/><g clip-path="url(#clip-0)"><path fill="rgb(32.939148%, 32.939148%, 32.939148%)" d="M 67.070312 19.945312 L 116.644531 19.945312 L 116.644531 50.339844 L 67.070312 50.339844 Z M 116.644531 4.75 L 116.644531 16.148438 L 67.070312 16.148438 L 67.070312 4.75 Z M 95.277344 71.15625 L 96.257812 71.488281 C 96.839844 71.679688 97.421875 71.925781 97.996094 72.207031 L 98.933594 72.667969 L 103.921875 69.683594 L 106.761719 72.511719 L 103.765625 77.484375 L 104.226562 78.417969 C 104.519531 78.996094 104.757812 79.578125 104.949219 80.148438 L 105.277344 81.128906 L 110.921875 82.539062 L 110.921875 86.53125 L 105.277344 87.941406 L 104.949219 88.917969 C 104.757812 89.492188 104.519531 90.070312 104.226562 90.648438 L 103.765625 91.582031 L 106.761719 96.554688 L 103.921875 99.382812 L 98.933594 96.398438 L 97.996094 96.859375 C 97.421875 97.140625 96.839844 97.386719 96.257812 97.578125 L 95.277344 97.914062 L 93.859375 103.53125 L 89.855469 103.53125 L 88.4375 97.914062 L 87.457031 97.578125 C 86.875 97.386719 86.292969 97.140625 85.71875 96.859375 L 84.78125 96.398438 L 79.792969 99.382812 L 76.953125 96.554688 L 79.949219 91.582031 L 79.488281 90.648438 C 79.195312 90.070312 78.957031 89.492188 78.765625 88.917969 L 78.4375 87.941406 L 72.792969 86.53125 L 72.792969 82.539062 L 78.4375 81.128906 L 78.765625 80.148438 C 78.957031 79.578125 79.195312 78.996094 79.488281 78.417969 L 79.949219 77.484375 L 76.953125 72.511719 L 79.792969 69.683594 L 84.78125 72.667969 L 85.71875 72.207031 C 86.292969 71.925781 86.875 71.679688 87.457031 71.488281 L 88.4375 71.15625 L 89.855469 65.539062 L 93.859375 65.539062 Z M 120.457031 54.140625 L 120.457031 0.949219 L 63.257812 0.949219 L 63.257812 54.140625 L 89.949219 54.140625 L 89.949219 61.738281 L 86.875 61.738281 L 85.234375 68.261719 C 85.15625 68.289062 85.074219 68.328125 84.992188 68.363281 L 79.203125 64.898438 L 72.15625 71.925781 L 75.628906 77.691406 C 75.589844 77.773438 75.5625 77.855469 75.523438 77.9375 L 68.976562 79.570312 L 68.976562 89.496094 L 75.523438 91.128906 C 75.5625 91.210938 75.589844 91.292969 75.628906 91.375 L 72.15625 97.140625 L 79.203125 104.160156 L 84.992188 100.703125 C 85.074219 100.738281 85.15625 100.777344 85.234375 100.804688 L 86.875 107.328125 L 89.949219 107.328125 L 89.949219 109.230469 C 89.949219 112.375 87.386719 114.925781 84.230469 114.925781 L 38.472656 114.925781 C 35.3125 114.925781 32.753906 112.375 32.753906 109.230469 L 32.753906 93.585938 L 39.394531 97.554688 L 41.363281 94.304688 L 30.84375 88.019531 L 20.328125 94.304688 L 22.296875 97.554688 L 28.9375 93.585938 L 28.9375 109.230469 C 28.9375 114.46875 33.214844 118.726562 38.472656 118.726562 L 84.230469 118.726562 C 89.488281 118.726562 93.765625 114.46875 93.765625 109.230469 L 93.765625 107.328125 L 96.839844 107.328125 L 98.476562 100.804688 C 98.558594 100.777344 98.640625 100.738281 98.722656 100.703125 L 104.511719 104.160156 L 111.554688 97.140625 L 108.085938 91.375 C 108.125 91.292969 108.152344 91.210938 108.191406 91.128906 L 114.738281 89.496094 L 114.738281 79.570312 L 108.191406 77.9375 C 108.152344 77.855469 108.125 77.773438 108.085938 77.691406 L 111.554688 71.925781 L 104.511719 64.898438 L 98.722656 68.363281 C 98.640625 68.328125 98.558594 68.289062 98.476562 68.261719 L 96.839844 61.738281 L 93.765625 61.738281 L 93.765625 54.140625 L 120.457031 54.140625 " fill-opacity="1" fill-rule="nonzero"/></g><path fill="rgb(32.939148%, 32.939148%, 32.939148%)" d="M 72.792969 12.347656 C 73.839844 12.347656 74.699219 11.492188 74.699219 10.449219 C 74.699219 9.402344 73.839844 8.546875 72.792969 8.546875 C 71.742188 8.546875 70.882812 9.402344 70.882812 10.449219 C 70.882812 11.492188 71.742188 12.347656 72.792969 12.347656 " fill-opacity="1" fill-rule="nonzero"/><path fill="rgb(32.939148%, 32.939148%, 32.939148%)" d="M 80.417969 12.347656 C 81.46875 12.347656 82.324219 11.492188 82.324219 10.449219 C 82.324219 9.402344 81.46875 8.546875 80.417969 8.546875 C 79.367188 8.546875 78.511719 9.402344 78.511719 10.449219 C 78.511719 11.492188 79.367188 12.347656 80.417969 12.347656 " fill-opacity="1" fill-rule="nonzero"/><path fill="rgb(32.939148%, 32.939148%, 32.939148%)" d="M 88.042969 12.347656 C 89.09375 12.347656 89.949219 11.492188 89.949219 10.449219 C 89.949219 9.402344 89.09375 8.546875 88.042969 8.546875 C 86.992188 8.546875 86.136719 9.402344 86.136719 10.449219 C 86.136719 11.492188 86.992188 12.347656 88.042969 12.347656 " fill-opacity="1" fill-rule="nonzero"/><path fill="rgb(32.939148%, 32.939148%, 32.939148%)" d="M 74.699219 27.542969 L 82.324219 27.542969 L 82.324219 35.144531 L 74.699219 35.144531 Z M 70.882812 38.941406 L 86.136719 38.941406 L 86.136719 23.746094 L 70.882812 23.746094 L 70.882812 38.941406 " fill-opacity="1" fill-rule="nonzero"/><path fill="rgb(32.939148%, 32.939148%, 32.939148%)" d="M 93.765625 27.542969 L 109.015625 27.542969 L 109.015625 35.144531 L 93.765625 35.144531 Z M 89.949219 38.941406 L 112.828125 38.941406 L 112.828125 23.746094 L 89.949219 23.746094 L 89.949219 38.941406 " fill-opacity="1" fill-rule="nonzero"/><path fill="rgb(32.939148%, 32.939148%, 32.939148%)" d="M 70.882812 46.539062 L 86.136719 46.539062 L 86.136719 42.742188 L 70.882812 42.742188 L 70.882812 46.539062 " fill-opacity="1" fill-rule="nonzero"/><path fill="rgb(32.939148%, 32.939148%, 32.939148%)" d="M 89.949219 46.539062 L 112.828125 46.539062 L 112.828125 42.742188 L 89.949219 42.742188 L 89.949219 46.539062 " fill-opacity="1" fill-rule="nonzero"/><g clip-path="url(#clip-1)"><path fill="rgb(32.939148%, 32.939148%, 32.939148%)" d="M 46.097656 80.734375 L 46.097656 71.234375 L 42.285156 71.234375 L 42.285156 80.734375 L 19.40625 80.734375 L 19.40625 71.234375 L 15.59375 71.234375 L 15.59375 80.734375 L 8.039062 80.734375 C 9.105469 66.753906 21.789062 62.652344 24.835938 61.863281 C 25.976562 62.457031 28.261719 63.4375 31.070312 63.4375 C 32.847656 63.4375 34.832031 63 36.847656 61.855469 C 39.871094 62.628906 52.59375 66.679688 53.65625 80.734375 Z M 30.84375 56.039062 C 32.230469 56.039062 33.480469 55.914062 34.660156 55.742188 L 34.660156 58.753906 C 31.5 60.371094 28.46875 59.378906 27.03125 58.710938 L 27.03125 55.742188 C 28.210938 55.914062 29.460938 56.039062 30.84375 56.039062 Z M 17.5 44.417969 L 17.5 27.542969 C 17.5 27.390625 17.574219 23.820312 23.0625 23.753906 C 23.605469 24.546875 24.304688 25.304688 25.222656 25.90625 C 26.578125 26.796875 28.1875 27.242188 30.042969 27.242188 C 32.105469 27.242188 34.480469 26.675781 37.132812 25.5625 C 39.03125 26.542969 41.382812 26.796875 44.191406 26.222656 L 44.191406 44.410156 C 43.878906 45.578125 41.59375 52.238281 30.84375 52.238281 C 20.074219 52.238281 17.804688 45.539062 17.5 44.417969 Z M 13.6875 27.542969 L 13.6875 27.8125 C 12.605469 28.078125 11.503906 28.554688 10.550781 29.332031 L 9.3125 28.101562 C 8.949219 27.738281 9.269531 27.078125 9.550781 26.699219 L 13.886719 20.226562 L 11.726562 13.824219 C 11.691406 13.4375 12.121094 12.488281 12.359375 12.273438 L 19.40625 10.863281 L 19.40625 12.347656 L 23.21875 12.347656 L 23.21875 6.648438 L 36.566406 6.648438 L 36.566406 9.800781 L 51.148438 16.027344 L 51.4375 16.132812 C 51.484375 16.148438 51.527344 16.167969 51.574219 16.183594 L 49.6875 19.945312 L 51.996094 24.546875 C 52.085938 24.761719 52.710938 26.5 50.222656 28.71875 C 49.503906 28.285156 48.75 27.988281 47.988281 27.804688 L 48.003906 21.109375 L 45.496094 21.941406 C 43.289062 22.675781 40.273438 23.277344 38.417969 21.972656 C 36.625 20.695312 36.566406 18.0625 36.566406 18.03125 L 34.660156 18.046875 L 32.753906 18.046875 C 32.753906 18.179688 32.796875 20.480469 34.0625 22.660156 C 31.113281 23.65625 28.804688 23.699219 27.335938 22.742188 C 25.183594 21.339844 25.125 18.070312 25.125 18.039062 L 23.21875 18.046875 L 21.3125 18.046875 C 21.3125 18.128906 21.320312 18.9375 21.550781 20.042969 C 15.390625 20.726562 13.6875 25.125 13.6875 27.542969 Z M 11.78125 35.144531 C 11.78125 33.183594 12.710938 32.25 13.6875 31.789062 L 13.6875 38.503906 C 12.726562 38.050781 11.78125 37.117188 11.78125 35.144531 Z M 47.976562 38.511719 L 47.988281 31.773438 C 48.957031 32.226562 49.910156 33.160156 49.910156 35.144531 C 49.910156 37.117188 48.957031 38.050781 47.976562 38.511719 Z M 57.539062 82.632812 C 57.539062 65.625 43.246094 59.847656 38.472656 58.382812 L 38.472656 54.816406 C 46.433594 51.964844 47.945312 45.101562 47.96875 45.011719 L 47.96875 42.480469 C 50.738281 41.8125 53.726562 39.65625 53.726562 35.144531 C 53.726562 33.667969 53.390625 32.449219 52.859375 31.449219 C 57.492188 27.226562 55.527344 23.09375 55.429688 22.890625 L 53.949219 19.945312 L 55.429688 17 L 55.535156 16.746094 C 56.472656 13.929688 53.671875 12.902344 52.75 12.5625 L 40.378906 7.292969 L 40.378906 6.648438 C 40.378906 4.554688 38.664062 2.847656 36.566406 2.847656 L 23.21875 2.847656 C 21.117188 2.847656 19.40625 4.554688 19.40625 6.648438 L 19.40625 6.988281 L 11.40625 8.585938 L 11.175781 8.644531 C 8.957031 9.386719 7.511719 12.6875 8.0625 14.847656 L 9.671875 19.664062 L 6.4375 24.507812 C 4.898438 26.558594 4.964844 29.148438 6.617188 30.789062 L 8.398438 32.5625 C 8.144531 33.324219 7.964844 34.164062 7.964844 35.144531 C 7.964844 39.640625 10.929688 41.800781 13.6875 42.472656 L 13.6875 44.640625 L 13.722656 45.011719 C 13.746094 45.101562 15.257812 51.964844 23.21875 54.816406 L 23.21875 58.382812 C 18.445312 59.847656 4.152344 65.625 4.152344 82.632812 L 4.152344 84.535156 L 57.539062 84.535156 L 57.539062 82.632812 " fill-opacity="1" fill-rule="nonzero"/></g><path fill="rgb(32.939148%, 32.939148%, 32.939148%)" d="M 25.125 33.242188 C 25.125 32.195312 24.269531 31.34375 23.21875 31.34375 C 22.167969 31.34375 21.3125 32.195312 21.3125 33.242188 C 21.3125 34.289062 22.167969 35.144531 23.21875 35.144531 C 24.269531 35.144531 25.125 34.289062 25.125 33.242188 " fill-opacity="1" fill-rule="nonzero"/><path fill="rgb(32.939148%, 32.939148%, 32.939148%)" d="M 38.472656 35.144531 C 39.523438 35.144531 40.378906 34.289062 40.378906 33.242188 C 40.378906 32.195312 39.523438 31.34375 38.472656 31.34375 C 37.421875 31.34375 36.566406 32.195312 36.566406 33.242188 C 36.566406 34.289062 37.421875 35.144531 38.472656 35.144531 " fill-opacity="1" fill-rule="nonzero"/><path fill="rgb(32.939148%, 32.939148%, 32.939148%)" d="M 27.457031 44.640625 L 34.242188 44.640625 C 33.78125 45.597656 32.828125 46.539062 30.84375 46.539062 C 28.878906 46.539062 27.925781 45.613281 27.457031 44.640625 Z M 38.472656 42.742188 L 38.472656 40.84375 L 23.21875 40.84375 L 23.21875 42.742188 C 23.21875 45.800781 25.253906 50.339844 30.84375 50.339844 C 36.4375 50.339844 38.472656 45.800781 38.472656 42.742188 " fill-opacity="1" fill-rule="nonzero"/></svg>