<?xml version="1.0" encoding="UTF-8"?>
<svg width="61px" height="42px" viewBox="0 0 61 42" version="1.1" xmlns="http://www.w3.org/2000/svg" xmlns:xlink="http://www.w3.org/1999/xlink">
    <!-- Generator: Sketch 61.2 (89653) - https://sketch.com -->
    <title>Combined Shape</title>
    <desc>Created with Sketch.</desc>
    <g id="Page-1" stroke="none" stroke-width="1" fill="none" fill-rule="evenodd">
        <g id="ngrok-product-page" transform="translate(-970.000000, -1323.000000)" fill="#1F1E37" fill-rule="nonzero">
            <path d="M1026.62092,1323 C1028.96738,1323 1030.88422,1324.8256 1030.99495,1327.11687 L1031,1327.32641 L1031,1360.67359 C1031,1362.99183 1029.15218,1364.88561 1026.83302,1364.99501 L1026.62092,1365 L974.379077,1365 C972.032615,1365 970.115777,1363.1744 970.005052,1360.88313 L970,1360.67359 L970,1327.32641 C970,1325.00817 971.847824,1323.11439 974.166984,1323.00499 L974.379077,1323 L1026.62092,1323 Z M1029.496,1333.291 L971.503,1333.291 L971.503408,1360.67359 C971.503408,1362.18575 972.701434,1363.42337 974.210202,1363.50985 L974.379077,1363.51467 L1026.62092,1363.51467 C1028.15149,1363.51467 1029.40418,1362.33106 1029.49171,1360.84043 L1029.49659,1360.67359 L1029.496,1333.291 Z M1004.73124,1335.73019 C1006.11064,1335.7247 1007.22785,1336.84192 1007.22236,1338.22131 C1007.21893,1338.89014 1006.95578,1339.51987 1006.48141,1339.99425 C1006.16344,1340.31221 1005.7659,1340.54033 1005.33484,1340.65305 L1005.33484,1340.65305 L1005.1334,1340.70551 L1005.08125,1352.84872 C1005.07354,1354.62669 1004.37377,1356.30198 1003.11165,1357.5641 C1001.84904,1358.82671 1000.17377,1359.52652 998.395739,1359.53423 C994.732047,1359.55062 991.758765,1356.58151 991.768456,1352.91729 L991.768456,1352.91729 L991.779975,1350.1477 C991.780467,1350.03424 991.825287,1349.92679 991.905566,1349.84651 C992.072321,1349.67976 992.342544,1349.67858 992.507858,1349.8439 L992.507858,1349.8439 L995.432819,1352.76886 C995.597608,1352.93365 995.596436,1353.20387 995.429681,1353.37063 C995.263456,1353.53685 994.993266,1353.53806 994.828444,1353.37323 L994.828444,1353.37323 L992.625334,1351.17012 L992.618874,1352.90274 C992.612146,1354.45385 993.209671,1355.90793 994.302798,1357.00105 C995.393789,1358.09204 996.848911,1358.69062 998.400515,1358.68438 C999.950602,1358.67769 1001.41048,1358.06598 1002.51204,1356.96442 C1003.6136,1355.86286 1004.22481,1354.40348 1004.23101,1352.8529 L1004.23101,1352.8529 L1004.28418,1340.70965 L1004.08435,1340.65897 C1002.98049,1340.37965 1002.21293,1339.38622 1002.21788,1338.24355 C1002.22418,1336.9054 1003.39359,1335.736 1004.73124,1335.73019 Z M1004.7341,1336.53674 C1003.85925,1336.53772 1003.0907,1337.30627 1003.08972,1338.18112 C1003.08846,1338.61935 1003.25893,1339.03112 1003.56903,1339.34116 C1003.87911,1339.65124 1004.29084,1339.82173 1004.72907,1339.82047 C1005.16628,1339.82023 1005.57915,1339.64785 1005.88975,1339.33726 C1006.20087,1339.02614 1006.37272,1338.6138 1006.37345,1338.17609 C1006.37497,1337.27097 1005.63923,1336.53522 1004.7341,1336.53674 Z M1026.62092,1324.48533 L974.379077,1324.48533 C972.848507,1324.48533 971.595819,1325.66894 971.508294,1327.15957 L971.503408,1327.32641 L971.503,1331.806 L1029.496,1331.806 L1029.49659,1327.32641 C1029.49659,1325.81425 1028.29857,1324.57663 1026.7898,1324.49015 L1026.62092,1324.48533 Z M976.247142,1327.54131 C976.771736,1327.54131 977.19397,1327.95847 977.19397,1328.47675 C977.19397,1328.98871 976.765338,1329.41219 976.247142,1329.41219 C975.728946,1329.41219 975.300315,1328.98871 975.300315,1328.47675 C975.300315,1327.96479 975.728946,1327.54131 976.247142,1327.54131 Z M979.650603,1327.54131 C980.173521,1327.54131 980.597431,1327.96012 980.597431,1328.47675 C980.597431,1328.99338 980.173521,1329.41219 979.650603,1329.41219 C979.127685,1329.41219 978.703776,1328.99338 978.703776,1328.47675 C978.703776,1327.96012 979.127685,1327.54131 979.650603,1327.54131 Z M983.047666,1327.54131 C983.570585,1327.54131 983.994494,1327.96012 983.994494,1328.47675 C983.994494,1328.99338 983.570585,1329.41219 983.047666,1329.41219 C982.524748,1329.41219 982.100839,1328.99338 982.100839,1328.47675 C982.100839,1327.96012 982.524748,1327.54131 983.047666,1327.54131 Z" id="Combined-Shape"></path>
        </g>
    </g>
</svg>